<svg width="1200" height="360" viewBox="0 0 1200 360" fill="none" xmlns="http://www.w3.org/2000/svg">
  <defs>
    <linearGradient id="bg" x1="0" y1="0" x2="1200" y2="360" gradientUnits="userSpaceOnUse">
      <stop offset="0" stop-color="#050816"/>
      <stop offset="0.48" stop-color="#111827"/>
      <stop offset="1" stop-color="#04121f"/>
    </linearGradient>
    <radialGradient id="glow1" cx="0" cy="0" r="1" gradientUnits="userSpaceOnUse" gradientTransform="translate(260 98) rotate(35) scale(300 180)">
      <stop stop-color="#7C3AED" stop-opacity="0.7"/>
      <stop offset="1" stop-color="#7C3AED" stop-opacity="0"/>
    </radialGradient>
    <radialGradient id="glow2" cx="0" cy="0" r="1" gradientUnits="userSpaceOnUse" gradientTransform="translate(930 230) rotate(-24) scale(330 190)">
      <stop stop-color="#00D4FF" stop-opacity="0.55"/>
      <stop offset="1" stop-color="#00D4FF" stop-opacity="0"/>
    </radialGradient>
    <linearGradient id="stroke" x1="140" y1="78" x2="1048" y2="290" gradientUnits="userSpaceOnUse">
      <stop stop-color="#00D4FF"/>
      <stop offset="0.55" stop-color="#7C3AED"/>
      <stop offset="1" stop-color="#22C55E"/>
    </linearGradient>
    <filter id="blur"><feGaussianBlur stdDeviation="28"/></filter>
    <style>
      .title { font: 800 72px 'Inter', 'Segoe UI', Arial, sans-serif; fill: #ffffff; letter-spacing: -2px; }
      .subtitle { font: 500 24px 'Inter', 'Segoe UI', Arial, sans-serif; fill: #c7d2fe; }
      .small { font: 600 17px 'Inter', 'Segoe UI', Arial, sans-serif; fill: #93c5fd; letter-spacing: .8px; }
      .code { font: 700 18px 'Fira Code', 'Cascadia Code', monospace; fill: #67e8f9; }
      .muted { fill: #94a3b8; }
      @keyframes float { 0%,100% { transform: translateY(0px); } 50% { transform: translateY(-10px); } }
      @keyframes pulse { 0%,100% { opacity: .6; } 50% { opacity: 1; } }
      @keyframes dash { to { stroke-dashoffset: -120; } }
      .float { animation: float 5s ease-in-out infinite; transform-origin: center; }
      .pulse { animation: pulse 2.8s ease-in-out infinite; }
      .dash { stroke-dasharray: 10 12; animation: dash 7s linear infinite; }
    </style>
  </defs>

  <rect width="1200" height="360" rx="34" fill="url(#bg)"/>
  <rect width="1200" height="360" rx="34" fill="url(#glow1)"/>
  <rect width="1200" height="360" rx="34" fill="url(#glow2)"/>

  <g opacity="0.2">
    <path d="M0 86H1200" stroke="#64748B"/>
    <path d="M0 174H1200" stroke="#64748B"/>
    <path d="M0 262H1200" stroke="#64748B"/>
    <path d="M160 0V360" stroke="#64748B"/>
    <path d="M420 0V360" stroke="#64748B"/>
    <path d="M760 0V360" stroke="#64748B"/>
    <path d="M1040 0V360" stroke="#64748B"/>
  </g>

  <path class="dash" d="M118 276 C250 188, 390 332, 528 232 S790 88, 1060 156" stroke="url(#stroke)" stroke-width="3" fill="none" opacity="0.75"/>

  <g transform="translate(84 69)">
    <rect x="0" y="0" width="186" height="186" rx="36" fill="#0F172A" stroke="url(#stroke)" stroke-width="2" opacity="0.92"/>
    <circle cx="93" cy="79" r="39" fill="#FACC15" opacity="0.95"/>
    <g class="float">
      <path d="M54 124c8-21 28-33 51-30 17-22 54-13 60 14 19 2 32 16 32 34 0 19-16 34-36 34H55c-22 0-40-17-40-38 0-20 17-36 39-36Z" transform="translate(-10 -8)" fill="#E0F2FE" opacity="0.96"/>
      <path d="M72 154l-12 23M105 154l-12 23M138 154l-12 23" stroke="#38BDF8" stroke-width="6" stroke-linecap="round"/>
    </g>
  </g>

  <text x="310" y="128" class="small">AI • WEATHER INTELLIGENCE • EDUCATION • WEB APPS</text>
  <text x="306" y="202" class="title">Elias Nunes</text>
  <text x="310" y="244" class="subtitle">Construindo produtos com React, IA, serverless e uma obsessão por UI boa.</text>

  <g transform="translate(312 282)">
    <rect x="0" y="0" width="132" height="36" rx="18" fill="#0B1220" stroke="#1E293B"/>
    <text x="22" y="24" class="code">React</text>
    <circle class="pulse" cx="106" cy="18" r="5" fill="#61DAFB"/>
  </g>
  <g transform="translate(462 282)">
    <rect x="0" y="0" width="146" height="36" rx="18" fill="#0B1220" stroke="#1E293B"/>
    <text x="20" y="24" class="code">TypeScript</text>
  </g>
  <g transform="translate(626 282)">
    <rect x="0" y="0" width="132" height="36" rx="18" fill="#0B1220" stroke="#1E293B"/>
    <text x="22" y="24" class="code">Netlify</text>
  </g>
  <g transform="translate(776 282)">
    <rect x="0" y="0" width="96" height="36" rx="18" fill="#0B1220" stroke="#1E293B"/>
    <text x="23" y="24" class="code">AI</text>
  </g>

  <g transform="translate(920 74)" class="float">
    <rect x="0" y="0" width="198" height="154" rx="30" fill="#020617" stroke="#334155" opacity="0.94"/>
    <rect x="20" y="22" width="158" height="16" rx="8" fill="#1E293B"/>
    <rect x="20" y="54" width="104" height="12" rx="6" fill="#7C3AED" opacity="0.8"/>
    <rect x="20" y="78" width="136" height="12" rx="6" fill="#00D4FF" opacity="0.7"/>
    <rect x="20" y="102" width="82" height="12" rx="6" fill="#22C55E" opacity="0.75"/>
    <path d="M146 60h20v20h-20zM146 96h20v20h-20z" fill="#CBD5E1" opacity="0.65"/>
  </g>
</svg>
